<svg width="24" height="24" viewBox="0 0 24 24" fill="none" xmlns="http://www.w3.org/2000/svg">
<path d="M8 21C6.82078 20.5037 5.74931 19.7762 4.84677 18.8592C3.94423 17.9421 3.2283 16.8534 2.73985 15.6552C2.2514 14.457 2 13.1728 2 11.8759C2 10.579 2.2514 9.29478 2.73985 8.09659C3.2283 6.8984 3.94423 5.80969 4.84677 4.89264C5.74931 3.97558 6.82078 3.24813 8 2.75182M8 2.75182L4.65202 2M8 2.75182L7.6514 4.39597L7.30279 6.04012" stroke="#14121F" stroke-linecap="round" stroke-linejoin="round"/>
<path d="M16 2C17.1792 2.49631 18.2507 3.22376 19.1532 4.14081C20.0558 5.05787 20.7717 6.14658 21.2601 7.34477C21.7486 8.54296 22 9.82718 22 11.1241C22 12.421 21.7486 13.7052 21.2601 14.9034C20.7717 16.1016 20.0558 17.1903 19.1532 18.1074C18.2507 19.0244 17.1792 19.7519 16 20.2482M16 20.2482L16.6972 16.9599M16 20.2482L19.348 21" stroke="#14121F" stroke-linecap="round" stroke-linejoin="round"/>
<rect x="2" y="6" width="20" height="11" rx="1" fill="white" stroke="white" stroke-width="3"/>
<rect x="2" y="6" width="20" height="11" rx="1" fill="white" stroke="#14121F"/>
<mask id="mask0_10296_2390" style="mask-type:alpha" maskUnits="userSpaceOnUse" x="1" y="5" width="22" height="13">
<rect x="2" y="6" width="20" height="11" rx="1" fill="white" stroke="#C3C3C5"/>
</mask>
<g mask="url(#mask0_10296_2390)">
<g clip-path="url(#clip0_10296_2390)">
<path d="M9.10453 11.2796L8.94 10.994C8.81557 10.7781 8.75335 10.6701 8.64749 10.627C8.54163 10.584 8.42191 10.618 8.18247 10.6859L7.77572 10.8005C7.62285 10.8357 7.46247 10.8157 7.32289 10.744L7.21059 10.6792C7.0909 10.6026 6.99883 10.4895 6.94787 10.3567L6.83655 10.0242C6.76336 9.8042 6.72676 9.6942 6.63964 9.63128C6.55251 9.56836 6.43679 9.56836 6.20534 9.56836H5.83374C5.60229 9.56836 5.48656 9.56836 5.39944 9.63128C5.31231 9.6942 5.27572 9.8042 5.20253 10.0242L5.09121 10.3567C5.04025 10.4895 4.94818 10.6026 4.82849 10.6792L4.71619 10.744C4.57661 10.8157 4.41623 10.8357 4.26336 10.8005L3.85661 10.6859C3.61717 10.618 3.49745 10.584 3.39159 10.627C3.28573 10.6701 3.22351 10.7781 3.09908 10.994L2.93455 11.2796C2.81792 11.482 2.7596 11.5832 2.77092 11.6909C2.78224 11.7987 2.86031 11.8855 3.01645 12.0591L3.36013 12.4434C3.44413 12.5497 3.50377 12.735 3.50377 12.9016C3.50377 13.0684 3.44415 13.2536 3.36014 13.36L3.01645 13.7442C2.86031 13.9179 2.78224 14.0047 2.77092 14.1124C2.7596 14.2202 2.81792 14.3214 2.93455 14.5238L3.09908 14.8093C3.22351 15.0253 3.28573 15.1333 3.39159 15.1763C3.49745 15.2194 3.61717 15.1854 3.85662 15.1174L4.26334 15.0029C4.41624 14.9676 4.57665 14.9876 4.71625 15.0594L4.82853 15.1242C4.9482 15.2008 5.04025 15.3138 5.0912 15.4467L5.20253 15.7792C5.27572 15.9992 5.31231 16.1092 5.39944 16.1721C5.48656 16.235 5.60229 16.235 5.83374 16.235H6.20534C6.43679 16.235 6.55251 16.235 6.63964 16.1721C6.72676 16.1092 6.76336 15.9992 6.83655 15.7792L6.94788 15.4467C6.99883 15.3138 7.09088 15.2008 7.21055 15.1242L7.32283 15.0594C7.46243 14.9876 7.62284 14.9676 7.77573 15.0029L8.18246 15.1174C8.42191 15.1854 8.54163 15.2194 8.64749 15.1763C8.75335 15.1333 8.81557 15.0253 8.94 14.8093L8.94 14.8093L9.10453 14.5238C9.22116 14.3214 9.27948 14.2202 9.26816 14.1124C9.25684 14.0047 9.17877 13.9179 9.02263 13.7442L8.67894 13.36C8.59493 13.2536 8.53531 13.0684 8.53531 12.9016C8.53531 12.735 8.59495 12.5497 8.67895 12.4434L9.02263 12.0591C9.17877 11.8855 9.25684 11.7987 9.26816 11.6909C9.27948 11.5832 9.22116 11.482 9.10453 11.2796Z" stroke="#14121F" stroke-linecap="round"/>
<path d="M7.17318 12.8991C7.17318 13.5434 6.65084 14.0658 6.00651 14.0658C5.36218 14.0658 4.83984 13.5434 4.83984 12.8991C4.83984 12.2548 5.36218 11.7324 6.00651 11.7324C6.65084 11.7324 7.17318 12.2548 7.17318 12.8991Z" stroke="#14121F"/>
</g>
<g clip-path="url(#clip1_10296_2390)">
<path d="M11.5794 6.78195L11.416 6.59653C11.2924 6.45631 11.2306 6.38619 11.1463 6.37029C11.0621 6.35439 10.9792 6.39718 10.8133 6.48275L10.5313 6.62748C10.4242 6.67614 10.3033 6.6853 10.19 6.65335L10.0978 6.62242C9.99845 6.58388 9.91396 6.51449 9.85673 6.4244L9.72544 6.19657C9.6389 6.04573 9.59564 5.97031 9.52223 5.93703C9.44882 5.90374 9.36375 5.92095 9.19361 5.95539L8.92046 6.01067C8.75032 6.04511 8.66525 6.06232 8.61056 6.12154C8.55588 6.18075 8.54534 6.26706 8.52427 6.43967L8.49191 6.70063C8.47421 6.80588 8.42335 6.90266 8.34677 6.97682L8.27386 7.04116C8.18192 7.11464 8.067 7.15321 7.94939 7.15003L7.63334 7.12633C7.44722 7.11201 7.35416 7.10485 7.28275 7.15224C7.21134 7.19964 7.18167 7.28827 7.12232 7.46552L7.04386 7.69989C6.98824 7.86604 6.96042 7.94911 6.98477 8.02663C7.00912 8.10415 7.07943 8.15635 7.22005 8.26077L7.52985 8.49209C7.60742 8.55776 7.67883 8.68512 7.70361 8.8076C7.72842 8.93015 7.71216 9.07521 7.66623 9.16589L7.47075 9.49948C7.3818 9.65036 7.33733 9.7258 7.34504 9.80668C7.35275 9.88756 7.41067 9.95329 7.52653 10.0847L7.68995 10.2701C7.81354 10.4104 7.87535 10.4805 7.95957 10.4964C8.04379 10.5123 8.12674 10.4695 8.29265 10.3839L8.57459 10.2392C8.68173 10.1905 8.80263 10.1814 8.91592 10.2133L9.0081 10.2443C9.10747 10.2828 9.19195 10.3522 9.24917 10.4423L9.38047 10.6701C9.46701 10.821 9.51028 10.8964 9.58368 10.9297C9.65709 10.963 9.74216 10.9457 9.9123 10.9113L10.1855 10.856C10.3556 10.8216 10.4407 10.8044 10.4953 10.7452C10.55 10.6859 10.5606 10.5996 10.5816 10.427L10.614 10.166C10.6317 10.0608 10.6825 9.96403 10.7591 9.88988L10.832 9.82554C10.9239 9.75203 11.0389 9.71346 11.1565 9.71663L11.4726 9.74034C11.6587 9.75466 11.7517 9.76183 11.8232 9.71443C11.8946 9.66703 11.9242 9.5784 11.9836 9.40115L12.062 9.16678C12.1177 9.00064 12.1455 8.91756 12.1211 8.84005C12.0968 8.76253 12.0265 8.71032 11.8859 8.60591L11.5761 8.37458C11.4985 8.3089 11.4271 8.18158 11.4023 8.05902C11.3775 7.93655 11.3938 7.79144 11.4397 7.70078L11.6352 7.3672C11.7241 7.21632 11.7686 7.14088 11.7609 7.06C11.7532 6.97911 11.6952 6.91339 11.5794 6.78195Z" stroke="#14121F" stroke-linecap="round"/>
<path d="M10.4005 8.25998C10.4964 8.73363 10.1901 9.1953 9.71647 9.29116C9.24283 9.38702 8.78115 9.08077 8.68529 8.60712C8.58943 8.13348 8.89568 7.6718 9.36933 7.57594C9.84298 7.48008 10.3047 7.78633 10.4005 8.25998Z" stroke="#14121F"/>
</g>
<g clip-path="url(#clip2_10296_2390)">
<path d="M20.8619 15.6949L21.0075 15.1368C21.1176 14.7148 21.1727 14.5038 21.0936 14.3201C21.0145 14.1364 20.8235 14.0317 20.4416 13.8223L19.7938 13.4656C19.56 13.3218 19.3846 13.0999 19.2987 12.839L19.2383 12.6203C19.1832 12.3778 19.2073 12.1238 19.3069 11.8956L19.5765 11.3444C19.7555 10.9802 19.8449 10.7982 19.8136 10.6127C19.7823 10.4273 19.638 10.2851 19.3495 10.0009L18.8863 9.54448C18.5977 9.26021 18.4535 9.11808 18.2676 9.08951C18.0817 9.06093 17.901 9.15312 17.5395 9.33748L16.9924 9.61521C16.7657 9.71825 16.5121 9.74608 16.2687 9.69463L16.0492 9.63748C15.7871 9.55545 15.5626 9.3834 15.4153 9.1517L15.049 8.50931C14.8339 8.13052 14.7264 7.94113 14.5416 7.86478C14.3567 7.78844 14.1466 7.84662 13.7262 7.96299L13.1704 8.11686C12.7764 8.22594 12.5794 8.28048 12.4612 8.42869C12.343 8.5769 12.3337 8.78102 12.315 9.18927L12.2716 10.0904C12.2457 10.3261 12.0924 10.6304 11.8878 10.8381C11.683 11.0459 11.3811 11.2036 11.1458 11.233L10.2454 11.2899C9.83747 11.3146 9.63351 11.327 9.48708 11.4474C9.34064 11.5678 9.28903 11.7656 9.18582 12.1612L9.04024 12.7192C8.93013 13.1412 8.87507 13.3522 8.95416 13.5359C9.03324 13.7196 9.22422 13.8243 9.60618 14.0336L10.2539 14.3904C10.4878 14.5342 10.6632 14.7562 10.7491 15.0171L10.8095 15.2357C10.8645 15.4783 10.8405 15.7322 10.7408 15.9604L10.4712 16.5116C10.2923 16.8758 10.2028 17.0579 10.2341 17.2433C10.2654 17.4288 10.4097 17.5709 10.6982 17.8552L11.1615 18.3116C11.45 18.5958 11.5942 18.738 11.7801 18.7665C11.966 18.7951 12.1468 18.7029 12.5082 18.5186L13.0554 18.2408C13.282 18.1378 13.5356 18.1099 13.7789 18.1613L13.9985 18.2185C14.2606 18.3005 14.4852 18.4726 14.6325 18.7043L14.9988 19.3467C15.2138 19.7255 15.3213 19.9149 15.5062 19.9912C15.691 20.0676 15.9012 20.0094 16.3215 19.893L16.8773 19.7391C17.2713 19.6301 17.4683 19.5755 17.5865 19.4273C17.7048 19.2791 17.7141 19.075 17.7327 18.6667L17.7762 17.7656C17.8021 17.5298 17.9553 17.2257 18.1601 17.0178C18.3647 16.8101 18.6667 16.6524 18.902 16.623L19.8023 16.5661C20.2103 16.5414 20.4142 16.529 20.5607 16.4086C20.7071 16.2882 20.7587 16.0904 20.8619 15.6949Z" stroke="#14121F" stroke-linecap="round"/>
<path d="M16.4641 15.34C15.6727 16.1432 14.3801 16.1528 13.5768 15.3614C12.7736 14.57 12.764 13.2774 13.5554 12.4741C14.3467 11.6709 15.6394 11.6613 16.4426 12.4527C17.2459 13.2441 17.2555 14.5367 16.4641 15.34Z" stroke="#14121F"/>
</g>
</g>
<defs>
<clipPath id="clip0_10296_2390">
<rect width="8" height="8" fill="white" transform="translate(2 8.89917)"/>
</clipPath>
<clipPath id="clip1_10296_2390">
<rect width="6" height="6" fill="white" transform="translate(6 6.08936) rotate(-11.4415)"/>
</clipPath>
<clipPath id="clip2_10296_2390">
<rect width="14" height="14" fill="white" transform="translate(14.9258 4) rotate(44.5741)"/>
</clipPath>
</defs>
</svg>
