<svg width="16" height="16" viewBox="0 0 16 16" fill="none" xmlns="http://www.w3.org/2000/svg">
<path d="M8.0013 11.3334C8.35492 11.3334 8.69406 11.1929 8.94411 10.9429C9.19416 10.6928 9.33464 10.3537 9.33464 10.0001C9.33464 9.64646 9.19416 9.30732 8.94411 9.05727C8.69406 8.80722 8.35492 8.66675 8.0013 8.66675C7.64768 8.66675 7.30854 8.80722 7.05849 9.05727C6.80844 9.30732 6.66797 9.64646 6.66797 10.0001C6.66797 10.3537 6.80844 10.6928 7.05849 10.9429C7.30854 11.1929 7.64768 11.3334 8.0013 11.3334ZM12.0013 5.33342C12.3549 5.33342 12.6941 5.47389 12.9441 5.72394C13.1942 5.97399 13.3346 6.31313 13.3346 6.66675V13.3334C13.3346 13.687 13.1942 14.0262 12.9441 14.2762C12.6941 14.5263 12.3549 14.6667 12.0013 14.6667H4.0013C3.64768 14.6667 3.30854 14.5263 3.05849 14.2762C2.80844 14.0262 2.66797 13.687 2.66797 13.3334V6.66675C2.66797 6.31313 2.80844 5.97399 3.05849 5.72394C3.30854 5.47389 3.64768 5.33342 4.0013 5.33342H4.66797V4.00008C4.66797 3.11603 5.01916 2.26818 5.64428 1.64306C6.2694 1.01794 7.11725 0.666748 8.0013 0.666748C8.43904 0.666748 8.87249 0.752967 9.27691 0.920483C9.68133 1.088 10.0488 1.33353 10.3583 1.64306C10.6679 1.95259 10.9134 2.32005 11.0809 2.72447C11.2484 3.12889 11.3346 3.56234 11.3346 4.00008V5.33342H12.0013ZM8.0013 2.00008C7.47087 2.00008 6.96216 2.2108 6.58709 2.58587C6.21202 2.96094 6.0013 3.46965 6.0013 4.00008V5.33342H10.0013V4.00008C10.0013 3.46965 9.79059 2.96094 9.41552 2.58587C9.04044 2.2108 8.53174 2.00008 8.0013 2.00008Z" fill="#86868B"/>
</svg>
