<svg width="12" height="12" viewBox="0 0 12 12" fill="none" xmlns="http://www.w3.org/2000/svg">
<path d="M9.91747 4.89353C10.1818 5.14127 10.5911 5.12133 10.8316 4.84893C11.0721 4.5766 11.0527 4.15493 10.7883 3.9072L9.91747 4.89353ZM1.21168 3.9072C0.947306 4.15493 0.927938 4.5766 1.16841 4.84893C1.4089 5.12133 1.81816 5.14127 2.08253 4.89353L1.21168 3.9072ZM5.99999 3.33333C7.50896 3.33333 8.88256 3.92367 9.91747 4.89353L10.7883 3.9072C9.52448 2.7228 7.84338 2 5.99999 2V3.33333ZM2.08253 4.89353C3.11745 3.92367 4.49106 3.33333 5.99999 3.33333V2C4.15658 2 2.47553 2.7228 1.21168 3.9072L2.08253 4.89353Z" fill="#1F1F20"/>
<path d="M7.74034 7.36016C8.00475 7.6079 8.41398 7.58796 8.65444 7.31563C8.89496 7.04323 8.87555 6.62163 8.61121 6.37383L7.74034 7.36016ZM3.38746 6.37383C3.12309 6.62163 3.10372 7.04323 3.34419 7.31563C3.58468 7.58796 3.99394 7.6079 4.25831 7.36016L3.38746 6.37383ZM5.99932 6.66683C6.67017 6.66683 7.28013 6.9289 7.74034 7.36016L8.61121 6.37383C7.92205 5.72803 7.00466 5.3335 5.99932 5.3335V6.66683ZM4.25831 7.36016C4.71852 6.9289 5.32847 6.66683 5.99932 6.66683V5.3335C4.99399 5.3335 4.07661 5.72803 3.38746 6.37383L4.25831 7.36016Z" fill="#1F1F20"/>
<path d="M5.99866 8.6665C5.64127 8.6665 5.35156 8.96497 5.35156 9.33317C5.35156 9.70137 5.64127 9.99984 5.99866 9.99984V8.6665ZM6.00513 9.99984C6.36253 9.99984 6.65223 9.70137 6.65223 9.33317C6.65223 8.96497 6.36253 8.6665 6.00513 8.6665V9.99984ZM5.99866 9.99984H6.00513V8.6665H5.99866V9.99984Z" fill="#1F1F20"/>
</svg>
