<svg width="160" height="46" viewBox="0 0 160 46" fill="none" xmlns="http://www.w3.org/2000/svg">
<g clip-path="url(#clip0_9487_3119)">
<path d="M0 0.871582H2.63602C4.61303 0.871582 9.22605 0.871582 14.4981 3.50015C19.1111 6.12873 23.7248 9.85727 28.3378 9.20013C33.6099 8.54298 38.2229 1.31441 42.8359 5.91441C47.4489 9.85727 52.721 25.6287 57.334 29.5716C61.947 34.1716 66.5601 26.943 71.8321 22.343C76.4451 17.0858 81.0581 13.8001 85.6712 13.8001C90.2842 13.8001 95.5562 17.0858 100.169 22.343C104.782 26.943 109.395 34.1716 114.667 36.8001C119.28 39.4287 123.893 37.4573 128.506 31.543C133.778 25.6287 138.391 15.1144 143.005 17.0858C147.618 18.4001 152.89 32.2001 157.503 38.1144C162.116 44.0287 166.729 42.7144 169.365 42.0573L172.001 40.743" stroke="#0071E2"/>
<circle cx="85" cy="14" r="2.5" fill="white" stroke="#0071E2"/>
</g>
<defs>
<clipPath id="clip0_9487_3119">
<rect width="160" height="46" fill="white"/>
</clipPath>
</defs>
</svg>
