<svg width="12" height="15" viewBox="0 0 12 15" fill="none" xmlns="http://www.w3.org/2000/svg">
<g clip-path="url(#clip0_9487_3184)">
<path d="M0.507203 2.045L1.8776 0.570833C2.04589 0.390774 2.247 0.247532 2.46913 0.149509C2.69127 0.0514864 2.92996 0.000656132 3.1712 0L6 0C6.69131 0.00094808 7.36118 0.25011 7.89671 0.705496C8.43225 1.16088 8.80071 1.79465 8.94 2.5H9C9.79539 2.50088 10.558 2.83041 11.1204 3.41627C11.6828 4.00213 11.9992 4.79647 12 5.625V11.875C11.9992 12.7035 11.6828 13.4979 11.1204 14.0837C10.558 14.6696 9.79539 14.9991 9 15H5.4C4.60461 14.9991 3.84204 14.6696 3.27962 14.0837C2.71719 13.4979 2.40085 12.7035 2.4 11.875V11.8125C1.72287 11.6674 1.11445 11.2836 0.677278 10.7257C0.240108 10.1679 0.000913109 9.47012 2.95205e-06 8.75V3.35C-0.000845368 2.86273 0.18117 2.39442 0.507203 2.045ZM5.4 13.75H9C9.47739 13.75 9.93523 13.5525 10.2728 13.2008C10.6104 12.8492 10.8 12.3723 10.8 11.875V5.625C10.8 5.12772 10.6104 4.65081 10.2728 4.29917C9.93523 3.94754 9.47739 3.75 9 3.75V8.75C8.99915 9.57853 8.68281 10.3729 8.12039 10.9587C7.55796 11.5446 6.79539 11.8741 6 11.875H3.6C3.6 12.3723 3.78964 12.8492 4.12721 13.2008C4.46478 13.5525 4.92261 13.75 5.4 13.75ZM3 10.625H6C6.47739 10.625 6.93523 10.4275 7.27279 10.0758C7.61036 9.72419 7.8 9.24728 7.8 8.75V3.125C7.8 2.62772 7.61036 2.15081 7.27279 1.79917C6.93523 1.44754 6.47739 1.25 6 1.25H3.6V2.5C3.6 2.83152 3.47357 3.14946 3.24853 3.38388C3.02349 3.6183 2.71826 3.75 2.4 3.75H1.2V8.75C1.2 9.24728 1.38964 9.72419 1.72721 10.0758C2.06478 10.4275 2.52261 10.625 3 10.625Z" fill="#86868B" fill-opacity="0.5"/>
</g>
<defs>
<clipPath id="clip0_9487_3184">
<rect width="12" height="15" fill="white"/>
</clipPath>
</defs>
</svg>
