<svg width="161" height="46" viewBox="0 0 161 46" fill="none" xmlns="http://www.w3.org/2000/svg">
<g clip-path="url(#clip0_9487_3143)">
<path d="M0.5 42.6582H3.13602C5.11303 42.6582 9.72605 42.6582 14.9981 40.0296C19.6111 37.4011 24.2248 33.6725 28.8378 34.3297C34.1099 34.9868 38.7229 42.2154 43.3359 37.6154C47.9489 33.6725 53.221 17.9011 57.834 13.9582C62.447 9.35823 67.0601 16.5868 72.3321 21.1868C76.9451 26.4439 81.5581 29.7297 86.1712 29.7297C90.7842 29.7297 96.0562 26.4439 100.669 21.1868C105.282 16.5868 109.895 9.35823 115.167 6.72966C119.78 4.10109 124.393 6.07252 129.006 11.9868C134.278 17.9011 138.891 28.4154 143.505 26.4439C148.118 25.1297 153.39 11.3297 158.003 5.41537C162.616 -0.498911 167.229 0.815376 169.865 1.47252L172.501 2.7868" stroke="#0071E2"/>
<circle cx="108" cy="13" r="2.5" fill="white" stroke="#0071E2"/>
</g>
<defs>
<clipPath id="clip0_9487_3143">
<rect width="160" height="46" fill="white" transform="translate(0.5)"/>
</clipPath>
</defs>
</svg>
