<svg width="12" height="12" viewBox="0 0 12 12" fill="none" xmlns="http://www.w3.org/2000/svg">
<path d="M7 5C7 4.72385 6.77615 4.5 6.5 4.5H6.25C4.73122 4.5 3.5 5.7312 3.5 7.25C3.5 8.7688 4.73122 10 6.25 10H8.75C10.2688 10 11.5 8.7688 11.5 7.25C11.5 6.00455 10.672 4.95244 9.5365 4.61412C9.2549 4.53021 9 4.76444 9 5.0583V5.08415C9 5.33295 9.18725 5.53675 9.41725 5.6317C10.0527 5.894 10.5 6.51975 10.5 7.25C10.5 8.2165 9.7165 9 8.75 9H6.25C5.2835 9 4.5 8.2165 4.5 7.25C4.5 6.2835 5.2835 5.5 6.25 5.5H6.5C6.77615 5.5 7 5.27615 7 5Z" fill="#86868B"/>
<path d="M5.75 2C7.2688 2 8.5 3.23122 8.5 4.75C8.5 6.2688 7.2688 7.5 5.75 7.5H5.5C5.22385 7.5 5 7.27615 5 7C5 6.72385 5.22385 6.5 5.5 6.5H5.75C6.7165 6.5 7.5 5.7165 7.5 4.75C7.5 3.7835 6.7165 3 5.75 3H3.25C2.2835 3 1.5 3.7835 1.5 4.75C1.5 5.48025 1.94726 6.106 2.58277 6.3683C2.81274 6.4632 3 6.66705 3 6.91585V6.9417C3 7.23555 2.74512 7.4698 2.4635 7.3859C1.32796 7.04755 0.5 5.99545 0.5 4.75C0.5 3.23122 1.73122 2 3.25 2H5.75Z" fill="#86868B"/>
</svg>
