<svg width="15" height="15" viewBox="0 0 15 15" fill="none" xmlns="http://www.w3.org/2000/svg">
<g clip-path="url(#clip0_9609_1981)">
<path d="M7.5 1.02195e-06C6.01664 1.02195e-06 4.5666 0.439868 3.33323 1.26398C2.09986 2.08809 1.13856 3.25943 0.570907 4.62988C0.00324967 6.00032 -0.145275 7.50832 0.144114 8.96318C0.433503 10.418 1.14781 11.7544 2.1967 12.8033C3.2456 13.8522 4.58197 14.5665 6.03683 14.8559C7.49168 15.1453 8.99968 14.9968 10.3701 14.4291C11.7406 13.8614 12.9119 12.9001 13.736 11.6668C14.5601 10.4334 15 8.98336 15 7.5C15.0005 6.51494 14.8069 5.53944 14.4301 4.62927C14.0534 3.71909 13.501 2.89209 12.8045 2.19555C12.1079 1.49901 11.2809 0.946585 10.3707 0.569857C9.46056 0.193129 8.48506 -0.000513324 7.5 1.02195e-06ZM7.5 13.8261C6.24808 13.8266 5.02414 13.4558 3.98299 12.7606C2.94184 12.0654 2.13027 11.077 1.65094 9.92049C1.17161 8.76396 1.04607 7.49126 1.29018 6.26337C1.53429 5.03548 2.13709 3.90757 3.02233 3.02233C3.90757 2.13709 5.03548 1.53429 6.26337 1.29017C7.49126 1.04606 8.76396 1.17161 9.92049 1.65094C11.077 2.13027 12.0654 2.94184 12.7606 3.98298C13.4558 5.02413 13.8266 6.24808 13.8261 7.5C13.8263 8.3308 13.6627 9.1535 13.3449 9.92109C13.027 10.6887 12.5611 11.3861 11.9736 11.9736C11.3861 12.5611 10.6887 13.027 9.92109 13.3449C9.1535 13.6627 8.3308 13.8263 7.5 13.8261Z" fill="#86868B" fill-opacity="0.5"/>
<path d="M7.49972 6.2793C7.3444 6.2793 7.19544 6.34099 7.0856 6.45082C6.97577 6.56066 6.91406 6.70964 6.91406 6.86496V10.6384C6.91406 10.7941 6.97591 10.9434 7.08598 11.0535C7.19606 11.1636 7.34534 11.2254 7.50102 11.2254C7.65669 11.2254 7.80599 11.1636 7.91607 11.0535C8.02614 10.9434 8.08797 10.7941 8.08797 10.6384V6.86496C8.08797 6.78783 8.07274 6.71144 8.04315 6.64022C8.01355 6.56899 7.97019 6.50433 7.91553 6.44991C7.86087 6.39549 7.796 6.35241 7.72464 6.32313C7.65329 6.29385 7.57685 6.27896 7.49972 6.2793Z" fill="#86868B" fill-opacity="0.5"/>
<path d="M7.50137 5.56036C7.93792 5.56036 8.29181 5.20647 8.29181 4.76993C8.29181 4.33338 7.93792 3.97949 7.50137 3.97949C7.06483 3.97949 6.71094 4.33338 6.71094 4.76993C6.71094 5.20647 7.06483 5.56036 7.50137 5.56036Z" fill="#86868B" fill-opacity="0.5"/>
</g>
<defs>
<clipPath id="clip0_9609_1981">
<rect width="15" height="15" fill="white"/>
</clipPath>
</defs>
</svg>
