<svg width="24" height="24" viewBox="0 0 24 24" fill="none" xmlns="http://www.w3.org/2000/svg">
<path d="M8 21C6.82078 20.5037 5.74931 19.7762 4.84677 18.8592C3.94423 17.9421 3.2283 16.8534 2.73985 15.6552C2.2514 14.457 2 13.1728 2 11.8759C2 10.579 2.2514 9.29478 2.73985 8.09659C3.2283 6.8984 3.94423 5.80969 4.84677 4.89264C5.74931 3.97558 6.82078 3.24813 8 2.75182M8 2.75182L4.65202 2M8 2.75182L7.6514 4.39597L7.30279 6.04012" stroke="#14121F" stroke-linecap="round" stroke-linejoin="round"/>
<path d="M16 2C17.1792 2.49631 18.2507 3.22376 19.1532 4.14081C20.0558 5.05787 20.7717 6.14658 21.2601 7.34477C21.7486 8.54296 22 9.82718 22 11.1241C22 12.421 21.7486 13.7052 21.2601 14.9034C20.7717 16.1016 20.0558 17.1903 19.1532 18.1074C18.2507 19.0244 17.1792 19.7519 16 20.2482M16 20.2482L16.6972 16.9599M16 20.2482L19.348 21" stroke="#14121F" stroke-linecap="round" stroke-linejoin="round"/>
<rect x="2" y="6" width="20" height="11" rx="1" fill="white" stroke="white" stroke-width="3"/>
<rect x="2" y="6" width="20" height="11" rx="1" fill="white" stroke="#14121F"/>
<path d="M11.7432 13.141H9.62891C9.7519 12.7819 9.86318 12.4403 9.99203 12.116C10.0155 12.0581 10.1443 12.0175 10.2263 12.0175C10.5777 12.006 10.9233 12.0117 11.3274 12.0117C11.2494 11.7255 11.1516 11.445 11.0346 11.1721C10.8589 10.8569 10.7653 10.5034 10.7622 10.1435C10.7591 9.78361 10.8467 9.42862 11.017 9.11053C11.1553 8.78493 11.2765 8.45248 11.3801 8.1145C12.2235 10.3382 13.0376 12.504 13.8751 14.7161C13.348 14.7161 12.856 14.7219 12.3641 14.7045C12.3055 14.7045 12.2294 14.5887 12.2001 14.5076C12.0478 14.0617 11.9014 13.6158 11.7432 13.141Z" fill="#14121F"/>
<path d="M7 15.0462C7.8961 12.7066 8.77463 10.4193 9.65902 8.1145H11.0002C10.766 8.78624 10.5376 9.44061 10.3091 10.0892C9.76444 11.6527 9.2139 13.2105 8.66921 14.774C8.59893 14.9767 8.51107 15.0635 8.2768 15.0519C7.87853 15.0288 7.46855 15.0462 7 15.0462Z" fill="#14121F"/>
<path d="M15.9989 14.9451H14.4819V14.6262C14.4819 13.7151 14.4761 12.8039 14.4878 11.8929C14.4898 11.6939 14.5214 11.4963 14.5815 11.3064C14.9095 10.327 15.255 9.34745 15.5772 8.3681C15.6475 8.15176 15.747 8.06698 15.993 8.14041C15.9989 10.4009 15.9989 12.6617 15.9989 14.9451Z" fill="#14121F"/>
<path d="M14.5 9.95599V8.1145H15.1735C14.9627 8.73412 14.7577 9.34795 14.5527 9.96178C14.5351 9.96178 14.5176 9.95599 14.5 9.95599Z" fill="#14121F"/>
</svg>
