<svg width="24" height="24" viewBox="0 0 24 24" fill="none" xmlns="http://www.w3.org/2000/svg">
<path d="M12.0002 19C11.4479 19 11.0002 19.4477 11.0002 20C11.0002 20.5523 11.4479 21 12.0002 21V19ZM12.0102 21C12.5625 21 13.0102 20.5523 13.0102 20C13.0102 19.4477 12.5625 19 12.0102 19V21ZM14.6907 17.04C15.0993 17.4116 15.7317 17.3817 16.1033 16.9732C16.475 16.5646 16.445 15.9322 16.0365 15.5605L14.6907 17.04ZM18.0541 13.3403C18.4626 13.7119 19.0951 13.682 19.4667 13.2734C19.8384 12.8649 19.8084 12.2324 19.3999 11.8608L18.0541 13.3403ZM7.96395 15.5605C7.5554 15.9322 7.52547 16.5646 7.89709 16.9732C8.26872 17.3817 8.90118 17.4116 9.30972 17.04L7.96395 15.5605ZM4.60056 11.8608C4.19201 12.2324 4.16208 12.8649 4.5337 13.2734C4.90533 13.682 5.53779 13.7119 5.94634 13.3403L4.60056 11.8608ZM12.0002 21H12.0102V19H12.0002V21ZM12.0002 16C13.0369 16 13.9795 16.3931 14.6907 17.04L16.0365 15.5605C14.9715 14.5918 13.5538 14 12.0002 14V16ZM12.0002 11C14.3321 11 16.4548 11.8855 18.0541 13.3403L19.3999 11.8608C17.4468 10.0842 14.8489 9 12.0002 9V11ZM9.30972 17.04C10.0209 16.3931 10.9635 16 12.0002 16V14C10.4466 14 9.02894 14.5918 7.96395 15.5605L9.30972 17.04ZM5.94634 13.3403C7.54566 11.8855 9.66837 11 12.0002 11V9C9.15149 9 6.55366 10.0842 4.60056 11.8608L5.94634 13.3403Z" fill="#86868B" fill-opacity="0.5"/>
</svg>
